<?xml version="1.0" standalone="no"?>
<!DOCTYPE svg PUBLIC "-//W3C//DTD SVG 20010904//EN"
 "http://www.w3.org/TR/2001/REC-SVG-20010904/DTD/svg10.dtd">
<svg version="1.0" xmlns="http://www.w3.org/2000/svg"
 width="100.000000pt" height="100.000000pt" viewBox="0 0 100.000000 100.000000"
 preserveAspectRatio="xMidYMid meet">
<metadata>
Created by potrace 1.11, written by Peter Selinger 2001-2013
</metadata>
<g transform="translate(0.000000,100.000000) scale(0.100000,-0.100000)"
fill="#000000" stroke="none">
<path d="M393 976 c-88 -22 -164 -66 -234 -135 -156 -155 -191 -360 -96 -561
37 -79 139 -185 214 -224 196 -99 418 -63 574 93 156 155 191 360 96 561 -37
79 -139 185 -214 224 -104 52 -232 68 -340 42z m26 -104 l24 -62 109 0 c85 0
108 -3 108 -14 0 -7 -13 -16 -29 -19 -39 -8 -43 -31 -39 -229 3 -137 5 -159
22 -177 11 -12 27 -21 38 -21 10 0 18 -7 18 -15 0 -11 -11 -15 -40 -15 -37 0
-40 -2 -40 -28 0 -58 16 -65 124 -60 107 6 123 14 157 81 11 20 27 37 35 37 9
0 14 -6 12 -12 -3 -7 -15 -43 -27 -80 l-23 -68 -220 0 c-167 0 -219 3 -216 12
3 7 18 16 35 20 31 8 43 29 43 76 0 17 -6 22 -25 22 -32 0 -34 27 -2 32 18 2
22 9 21 38 -1 19 -11 63 -24 98 l-23 63 -100 -3 -101 -3 -28 -83 c-31 -89 -29
-108 14 -114 12 -2 23 -9 26 -15 3 -10 -21 -13 -97 -13 -79 0 -101 3 -101 14
0 7 13 16 29 19 22 5 34 17 49 49 16 34 117 290 203 516 15 40 41 22 68 -46z"/>
<path d="M346 769 c-8 -20 -27 -66 -40 -103 l-25 -66 79 0 79 0 -28 78 c-16
42 -34 88 -39 102 l-10 25 -16 -36z"/>
<path d="M464 756 c3 -13 15 -43 26 -67 l20 -44 -4 59 c-4 54 -16 75 -40 76
-4 0 -5 -11 -2 -24z"/>
</g>
</svg>
